<svg data-v-0dd9719b="" version="1.0" xmlns="http://www.w3.org/2000/svg" xmlns:xlink="http://www.w3.org/1999/xlink" width="100%" height="100%" viewBox="0 0 340.000000 250.000000" preserveAspectRatio="xMidYMid meet" color-interpolation-filters="sRGB" style="margin: auto;"> <rect data-v-0dd9719b="" x="0" y="0" width="100%" height="100%" fill="#ffffff" fill-opacity="1" class="background"></rect> <rect data-v-0dd9719b="" x="0" y="0" width="100%" height="100%" fill="url(#watermark)" fill-opacity="1" class="watermarklayer"></rect> <g data-v-0dd9719b="" class="iconmbgsvg" transform="translate(81.31385803222656,68.03220748901367)"><g fill="#000000" hollow-target="textNormalTran"><g opacity="0.55" transform="translate(32.43614196777344,0)"><g><rect fill="#000000" fill-opacity="0" stroke-width="2" x="0" y="0" width="112.5" height="113.93558841401659" class="image-rect"></rect> <svg x="0" y="0" width="112.5" height="113.93558841401659" filtersec="colorsb623663894" class="image-svg-svg primary" style="overflow: visible;"><svg xmlns="http://www.w3.org/2000/svg" xlink="http://www.w3.org/1999/xlink" viewBox="0 0 98.74000549316406 100"><defs><linearGradient id="aec3ed68b-44f1-45dc-921f-3383d17bd6a1" x1="41.66" y1="50.23" x2="65.95" y2="8.17" gradientUnits="userSpaceOnUse"><stop offset="0" stop-color="#6ee2f5"></stop><stop offset="1" stop-color="#6454f0"></stop></linearGradient><linearGradient id="b0af6b68a-562e-432d-af07-5711781470ea" x1="51.8" y1="72.43" x2="98.74" y2="72.43" href="#aec3ed68b-44f1-45dc-921f-3383d17bd6a1"></linearGradient><linearGradient id="ce4d94893-8722-45ad-937c-d262148f0f86" x1="48.56" y1="67.78" x2="0" y2="67.78" href="#aec3ed68b-44f1-45dc-921f-3383d17bd6a1"></linearGradient></defs><path d="M74.46 13.09L51.8 0a48.58 48.58 0 0 1-24.28 42.06l22.21 12.82.45.26a48.53 48.53 0 0 0 24.28-42z" fill="url(#aec3ed68b-44f1-45dc-921f-3383d17bd6a1)"></path><path d="M76.08 100l22.66-13.09a48.56 48.56 0 0 1-24.28-42L51.8 57.94A48.56 48.56 0 0 0 76.08 100z" fill="url(#b0af6b68a-562e-432d-af07-5711781470ea)"></path><path d="M48.56 84.12V58A48.58 48.58 0 0 0 0 57.94v26.17a48.58 48.58 0 0 1 48.56 0z" fill="url(#ce4d94893-8722-45ad-937c-d262148f0f86)"></path></svg></svg> <!----></g></g> <g transform="translate(0,28.331541061401367)"><g data-gra="path-name" fill-rule="" class="tp-name" transform="translate(0,0)"><g transform="scale(1)"><g><path d="M33.09-7.56L33.09-7.56 24.7-7.56 24.7 1.58Q24.65 1.71 24.19 1.96 23.73 2.2 22.7 2.44 21.67 2.68 20.48 2.68L20.48 2.68 19.56 2.68 19.56-7.56 11.47-7.56 11.12-8.88 19.56-8.88 19.56-14.33 11.87-14.33 11.51-15.56 23.55-15.56Q24.83-19.38 25.58-23.38L25.58-23.38 31.64-21.71Q31.33-20.79 29.93-20.83L29.93-20.83Q27.25-17.71 24.87-15.56L24.87-15.56 27.77-15.56 29.93-18.19Q32.43-16.39 34.01-15.03L34.01-15.03Q33.84-14.33 32.78-14.33L32.78-14.33 24.7-14.33 24.7-8.88 27.47-8.88 29.84-11.87Q32.61-9.76 34.32-8.26L34.32-8.26Q34.15-7.56 33.09-7.56ZM13.8-23.03L13.8-23.03 14.24-23.25Q19.38-22.1 20.3-19.34L20.3-19.34Q20.87-17.62 19.6-16.52L19.6-16.52Q18.24-15.34 16.52-16.44L16.52-16.44Q16.26-16.57 16.04-16.79L16.04-16.79Q16-19.91 13.8-23.03ZM42.36-30.54L42.36-30.54 24.96-30.54 24.96-25.18 34.85-25.18 37.27-27.95 42.41-23.95Q41.75-23.2 40.56-23.03L40.56-23.03 40.56-1.98Q40.56 0.92 39.22 2.31 37.88 3.69 33.62 4.04L33.62 4.04Q33.4 1.36 32.52 0.44L32.52 0.44Q31.16-0.92 28.43-1.32L28.43-1.32 28.43-1.93Q33.09-1.58 34.28-1.58L34.28-1.58Q35.29-1.58 35.29-2.5L35.29-2.5 35.29-23.91 9.8-23.91 9.8 2.11Q9.8 2.64 8.37 3.32 6.94 4 5.41 4L5.41 4 4.53 4 4.53-27.51 10.2-25.18 19.6-25.18 19.6-30.54 1.8-30.54 1.45-31.82 19.6-31.82 19.6-38.1 26.63-37.53Q26.5-36.47 24.96-36.25L24.96-36.25 24.96-31.82 34.85-31.82 37.92-35.73Q41.44-33.13 43.64-31.29L43.64-31.29Q43.42-30.54 42.36-30.54ZM56.87-11.07L56.87-11.07 62.67-7.65Q62.27-6.94 61.04-7.16L61.04-7.16Q58.54-4.66 54.67-2.29 50.8 0.09 46.63 1.49L46.63 1.49 46.23 0.97Q49.44-1.36 52.36-4.75 55.28-8.13 56.87-11.07ZM59.37-24.3L59.37-16.08 75.54-16.08 75.54-24.3 59.37-24.3ZM75.54-12.44L75.54-14.77 70.18-14.77 70.18-2.33Q70.18 0.66 68.8 2.2 67.41 3.74 63.19 4.04L63.19 4.04Q63.06 1.41 62.14 0.31L62.14 0.31Q61.17-0.92 58.1-1.45L58.1-1.45 58.1-2.02Q62.8-1.71 63.81-1.71 64.82-1.71 64.82-2.46L64.82-2.46 64.82-14.77 59.37-14.77 59.37-13.4Q59.37-13.01 57.83-12.39 56.29-11.78 54.76-11.78L54.76-11.78 54.01-11.78 54.01-27.82 59.68-25.62 75.1-25.62 77.61-28.3 82.92-24.35Q82.31-23.64 81.08-23.38L81.08-23.38 81.08-13.84Q81.04-13.54 79.41-12.99 77.78-12.44 76.51-12.44L76.51-12.44 75.54-12.44ZM73.17-9.62L73.17-9.62 73.52-9.93Q82.31-8.53 85.34-4.35L85.34-4.35Q87.06-1.98 86.09-0.04L86.09-0.04Q85.3 1.58 83.32 1.23L83.32 1.23Q82.71 1.1 82.09 0.79L82.09 0.79Q79.72-4 73.17-9.62ZM70.09-31.55L79.54-31.55 82.66-35.51Q86.18-32.83 88.29-30.98L88.29-30.98Q88.07-30.23 86.97-30.23L86.97-30.23 47.37-30.23 47.02-31.55 64.64-31.55 64.64-38.14 71.76-37.57Q71.63-36.52 70.09-36.3L70.09-36.3 70.09-31.55ZM116.19-16.17L116.19-16.17 116.63-16.44Q119.79-15.78 121.31-14.39 122.83-13.01 122.67-11.78 122.52-10.55 121.46-9.98L121.46-9.98Q124.85-7.12 125.38-6.64L125.38-6.64Q125.16-5.89 124.15-5.89L124.15-5.89 100.59-5.89 100.2-7.16 109.64-7.16 109.64-17.31 102.88-17.31 102.52-18.63 109.64-18.63 109.64-26.98 101.12-26.98 100.77-28.21 117.64-28.21 120.06-31.42Q122.83-29.22 124.5-27.73L124.5-27.73Q124.28-26.98 123.31-26.98L123.31-26.98 114.48-26.98 114.48-18.63 116.89-18.63 119.22-21.75Q121.86-19.6 123.4-18.06L123.4-18.06Q123.27-17.31 122.21-17.31L122.21-17.31 114.48-17.31 114.48-7.16 118.43-7.16 120.37-9.71Q119.44-9.71 118.61-10.42L118.61-10.42Q118.34-13.45 116.19-16.17ZM98.88-33.79L98.88-0.97 125.95-0.97 125.95-33.79 98.88-33.79ZM125.51-35.11L128.06-37.92 133.11-33.88Q132.58-33.27 131.22-32.96L131.22-32.96 131.22 2.07Q131.18 2.46 129.66 3.12 128.14 3.78 126.83 3.78L126.83 3.78 125.95 3.78 125.95 0.35 98.88 0.35 98.88 2.02Q98.88 2.59 97.49 3.3 96.11 4 94.57 4L94.57 4 93.69 4 93.69-37.44 99.32-35.11 125.51-35.11ZM166.46-36.39L166.46-36.39 166.82-36.74Q172.92-36.47 174.64-33.62L174.64-33.62Q175.65-31.9 174.55-30.45L174.55-30.45Q173.45-29.05 171.52-29.66L171.52-29.66Q171.17-29.79 170.77-30.01L170.77-30.01Q170.29-31.6 169.06-33.38 167.83-35.16 166.46-36.39ZM146.73-25.84L146.73-25.84 149.41-24.83Q149.11-24.17 147.96-23.99L147.96-23.99 147.96 2.46Q147.92 2.81 146.51 3.41 145.11 4 143.75 4L143.75 4 142.73 4 142.73-20.39Q139.79-17.01 136.32-14.46L136.32-14.46 135.75-14.81Q138.78-19.16 141.48-25.47 144.18-31.77 145.63-38.28L145.63-38.28 153.15-35.9Q152.84-34.94 151.39-34.98L151.39-34.98Q149.46-30.15 146.73-25.84ZM177.85-9.32L178.33-9.23 177.32-1.67Q179.56 1.85 178.46 3.03L178.46 3.03Q177.54 4.13 176 4 174.46 3.87 173.1 3.21 171.74 2.55 170.46 1.58L170.46 1.58Q165.54-2.42 162.86-8.28 160.18-14.15 159.08-21.88L159.08-21.88 149.9-20.79 149.41-22.02 158.91-23.12Q158.12-29.4 158.12-37.57L158.12-37.57 165.15-36.74Q164.97-35.64 163.52-35.42L163.52-35.42Q163.39-29.22 163.96-23.73L163.96-23.73 169.8-24.39 172.44-28.48Q176.13-26.46 178.46-24.87L178.46-24.87Q178.33-24.13 177.32-23.99L177.32-23.99 164.14-22.46Q166.03-8.96 173.5-3.6L173.5-3.6Q174.02-3.12 174.33-3.14 174.64-3.16 174.95-3.74L174.95-3.74Q176.62-6.37 177.85-9.32L177.85-9.32Z" transform="translate(-1.4500000476837158, 38.279998779296875)"></path></g> <!----> <!----> <!----> <!----> <!----> <!----> <!----></g></g> <g data-gra="path-slogan" fill-rule="" class="tp-slogan" fill="#000000" transform="translate(5,48.320003509521484)"><rect x="0" height="1" y="3.9750008583068848" width="30.156143188476562"></rect> <rect height="1" y="3.9750008583068848" width="30.156143188476562" x="137.2161407470703"></rect> <g transform="translate(33.15614318847656,0)"><g transform="scale(1)"><path d="M2.30-8.58L6.61-1.64L6.61-8.58L7.73-8.58L7.73 0L6.42 0L2.06-6.94L2.02-6.94L2.02 0L0.89 0L0.89-8.58L2.30-8.58ZM15.19 0L14.34-2.48L10.88-2.48L9.98 0L8.81 0L12.05-8.58L13.36-8.58L16.45 0L15.19 0ZM12.61-7.31L11.25-3.52L13.92-3.52L12.66-7.31L12.61-7.31ZM18.89-8.58L23.20-1.64L23.20-8.58L24.33-8.58L24.33 0L23.02 0L18.66-6.94L18.61-6.94L18.61 0L17.48 0L17.48-8.58L18.89-8.58ZM25.41-1.92L25.41-2.77L26.48-2.77L26.48-2.16Q26.48-0.75 27.80-0.75L27.80-0.75Q29.16-0.75 29.16-2.25L29.16-2.25L29.16-8.58L30.33-8.58L30.33-2.30Q30.28 0.09 27.84 0.14L27.84 0.14Q25.55 0.09 25.41-1.92L25.41-1.92ZM32.30-8.58L33.47-8.58L33.47 0L32.30 0L32.30-8.58ZM36.84-8.58L41.16-1.64L41.16-8.58L42.28-8.58L42.28 0L40.97 0L36.61-6.94L36.56-6.94L36.56 0L35.44 0L35.44-8.58L36.84-8.58ZM50.48-3.61L47.86-3.61L47.86-4.59L51.61-4.59L51.61 0L50.86 0L50.58-1.08Q49.59 0.09 47.77 0.14L47.77 0.14Q46.03 0.14 45.09-0.75L45.09-0.75Q43.69-2.06 43.73-4.36L43.73-4.36Q44.06-8.63 47.81-8.81L47.81-8.81Q51-8.63 51.47-6L51.47-6L50.34-6Q49.88-7.78 47.77-7.83L47.77-7.83Q45.09-7.64 44.95-4.31L44.95-4.31Q44.95-0.75 47.81-0.75L47.81-0.75Q48.84-0.75 49.59-1.31L49.59-1.31Q50.53-2.06 50.48-3.61L50.48-3.61ZM63.14-3.61L60.52-3.61L60.52-4.59L64.27-4.59L64.27 0L63.52 0L63.23-1.08Q62.25 0.09 60.42 0.14L60.42 0.14Q58.69 0.14 57.75-0.75L57.75-0.75Q56.34-2.06 56.39-4.36L56.39-4.36Q56.72-8.63 60.47-8.81L60.47-8.81Q63.66-8.63 64.13-6L64.13-6L63-6Q62.53-7.78 60.42-7.83L60.42-7.83Q57.75-7.64 57.61-4.31L57.61-4.31Q57.61-0.75 60.47-0.75L60.47-0.75Q61.50-0.75 62.25-1.31L62.25-1.31Q63.19-2.06 63.14-3.61L63.14-3.61ZM71.72-3.19L71.72-8.58L72.89-8.58L72.89-3.05Q72.75 0.05 69.38 0.14L69.38 0.14Q66.23 0.05 66.09-2.86L66.09-2.86L66.09-8.58L67.27-8.58L67.27-3.19Q67.31-0.84 69.42-0.80L69.42-0.80Q71.72-0.84 71.72-3.19L71.72-3.19ZM81.47-4.27L81.47-4.27Q81.28-7.64 78.47-7.83L78.47-7.83Q75.61-7.69 75.47-4.27L75.47-4.27Q75.61-0.94 78.47-0.80L78.47-0.80Q81.28-0.98 81.47-4.27ZM82.64-4.27L82.64-4.27Q82.36 0 78.47 0.14L78.47 0.14Q74.53 0 74.25-4.27L74.25-4.27Q74.48-8.72 78.47-8.81L78.47-8.81Q82.36-8.67 82.64-4.27ZM87.52 0L84.05 0L84.05-8.58L87.56-8.58Q91.03-8.39 91.17-4.41L91.17-4.41Q90.98-0.09 87.52 0L87.52 0ZM87.38-7.64L85.22-7.64L85.22-0.98L87.47-0.98Q89.91-1.13 90-4.31L90-4.31Q89.95-7.55 87.38-7.64L87.38-7.64ZM98.30 0L97.45-2.48L93.98-2.48L93.09 0L91.92 0L95.16-8.58L96.47-8.58L99.56 0L98.30 0ZM95.72-7.31L94.36-3.52L97.03-3.52L95.77-7.31L95.72-7.31ZM100.78-8.58L101.95-8.58L101.95 0L100.78 0L100.78-8.58Z" transform="translate(-0.890625, 8.8125)"></path></g></g></g></g></g></g><defs v-gra="od"></defs></svg>